<?xml version="1.0" encoding="UTF-8" standalone="no"?>
<svg
   version="1.1"
   id="Layer_1"
   width="200"
   height="200"
   viewBox="0 0 200 200"
   enable-background="new 0 0 194 174"
   xml:space="preserve"
   sodipodi:docname="datist-logo.svg"
   inkscape:version="1.4.2 (1:1.4.2+202505120737+ebf0e940d0)"
   xmlns:inkscape="http://www.inkscape.org/namespaces/inkscape"
   xmlns:sodipodi="http://sodipodi.sourceforge.net/DTD/sodipodi-0.dtd"
   xmlns="http://www.w3.org/2000/svg"
   xmlns:svg="http://www.w3.org/2000/svg"><defs
   id="defs5" /><sodipodi:namedview
   id="namedview5"
   pagecolor="#ffffff"
   bordercolor="#000000"
   borderopacity="0.25"
   inkscape:showpageshadow="2"
   inkscape:pageopacity="0.0"
   inkscape:pagecheckerboard="0"
   inkscape:deskcolor="#d1d1d1"
   inkscape:zoom="2.9425287"
   inkscape:cx="53.185548"
   inkscape:cy="106.54102"
   inkscape:window-width="1920"
   inkscape:window-height="1108"
   inkscape:window-x="0"
   inkscape:window-y="53"
   inkscape:window-maximized="1"
   inkscape:current-layer="Layer_1" />


<path
   fill="#6fa7db"
   opacity="1"
   stroke="none"
   d="m 158.29062,143.02898 c 10.60708,-5.06408 20.91481,-9.74271 31.07028,-14.74932 4.23908,-2.08986 7.30615,-0.33533 9.01447,3.02322 1.85618,3.64921 0.24427,7.17608 -3.45374,9.01317 -9.97408,4.95487 -20.02685,9.74115 -30.03874,14.61554 -20.22456,9.84653 -40.56175,19.46029 -60.5867,29.72105 -5.581325,2.85991 -9.426158,-0.27126 -13.443056,-2.18475 -19.476778,-9.27796 -38.729121,-19.05504 -58.104685,-28.56062 -8.669781,-4.2534 -17.421201,-8.33258 -26.1761336,-12.39804 -4.7330437,-2.19788 -7.13393608,-6.43367 -5.2591026,-10.35611 2.2156206,-4.63543 5.9276684,-4.41829 9.8906192,-2.5594 8.399892,3.9401 16.865663,7.73843 25.187261,11.84696 20.192101,9.96914 40.290742,20.13997 60.51885,30.03007 1.643037,0.80334 4.299997,0.76908 5.957737,-0.0339 18.41414,-8.91977 36.72408,-18.06816 55.42294,-27.40786 z"
   id="path3"
   style="stroke-width:1.1557;fill:#74c0fc;fill-opacity:1"
   inkscape:label="bottom" /><path
   fill="#6fa7db"
   opacity="1"
   stroke="none"
   d="m 158.60834,104.59843 c 10.60708,-5.064079 20.91481,-9.742709 31.07028,-14.749319 4.23908,-2.08986 7.30615,-0.33533 9.01447,3.02322 1.85618,3.64921 0.24427,7.176079 -3.45374,9.013169 -9.97408,4.95487 -20.02685,9.74115 -30.03874,14.61554 -20.22456,9.84653 -40.56175,19.46029 -60.5867,29.72105 -5.581323,2.85991 -9.426156,-0.27126 -13.443054,-2.18475 C 71.694078,134.75938 52.441735,124.9823 33.066171,115.47672 24.39639,111.22332 15.64497,107.14414 6.8900376,103.07868 2.1569946,100.8808 -0.24389844,96.645011 1.6309356,92.722571 c 2.21562,-4.63543 5.9276682,-4.41829 9.8906184,-2.5594 8.399892,3.9401 16.865663,7.73843 25.187261,11.846959 20.192101,9.96914 40.290742,20.13997 60.51885,30.03007 1.643037,0.80334 4.299995,0.76908 5.957735,-0.0339 18.41414,-8.91977 36.72408,-18.06816 55.42294,-27.40786 z"
   id="path3-2"
   style="stroke-width:1.1557;fill:#74c0fc;fill-opacity:1"
   inkscape:label="middle" /><path
   fill="#6fa7db"
   opacity="1"
   stroke="none"
   d="m 103.19674,6.5976074 c 14.31697,6.8662886 28.16177,13.7083396 42.0626,20.4272656 16.23322,7.84628 32.58335,15.441451 48.69675,23.538735 2.19899,1.105033 4.61489,4.503687 4.58078,6.803358 -0.0342,2.304375 -2.54366,5.489551 -4.77656,6.685347 -11.65897,6.243752 -23.55319,12.024659 -35.40806,17.875017 -13.01043,6.42062 -26.05708,12.763571 -39.10843,19.09555 -5.5192,2.67769 -11.01147,5.44987 -16.68492,7.73332 -1.78031,0.71654 -4.409238,0.6374 -6.144522,-0.19556 C 79.97491,100.66977 63.653406,92.518279 47.280025,84.4806 33.418361,77.675931 19.460207,71.072403 5.7336745,63.990899 3.5828549,62.881293 1.1380522,59.678883 1.176958,57.488461 1.2191242,55.114302 3.4964618,51.68693 5.6770562,50.613649 35.875262,35.750245 66.207165,21.174108 96.582978,6.6984647 98.298493,5.8809284 100.67856,6.5446229 103.19674,6.5976085 m 33.8402,31.6213865 C 125.3895,32.372751 113.78341,26.435008 102.0416,20.797528 100.59439,20.102693 98.194218,20.502124 96.62306,21.254171 82.706811,27.915278 68.869369,34.751822 55.026241,41.574458 44.34002,46.841199 33.679071,52.162394 22.401142,57.760033 c 4.762755,2.20376 8.836475,3.976258 12.816652,5.949205 20.673753,10.247833 41.310087,20.576081 62.01557,30.75506 1.242732,0.610946 3.226026,0.728216 4.436396,0.139639 C 126.74307,82.411061 151.75431,70.082492 177.16728,57.5893 163.87369,51.081738 150.88747,44.724628 137.03694,38.218995 Z"
   id="path2"
   style="stroke-width:1.1557;fill:#74c0fc;fill-opacity:1"
   inkscape:label="top" />


</svg>
