<?xml version="1.0" encoding="UTF-8" standalone="no"?>
<svg
   version="1.0"
   viewBox="0 0 800 200"
   preserveAspectRatio="xMidYMid"
   id="svg6"
   sodipodi:docname="datist-logo-text-dark.svg"
   inkscape:version="1.4.2 (1:1.4.2+202505120737+ebf0e940d0)"
   xmlns:inkscape="http://www.inkscape.org/namespaces/inkscape"
   xmlns:sodipodi="http://sodipodi.sourceforge.net/DTD/sodipodi-0.dtd"
   xmlns="http://www.w3.org/2000/svg"
   xmlns:svg="http://www.w3.org/2000/svg">
  <defs
     id="defs6" />
  <sodipodi:namedview
     id="namedview6"
     pagecolor="#ffffff"
     bordercolor="#000000"
     borderopacity="0.25"
     inkscape:showpageshadow="2"
     inkscape:pageopacity="0.0"
     inkscape:pagecheckerboard="0"
     inkscape:deskcolor="#d1d1d1"
     inkscape:document-units="pt"
     inkscape:zoom="0.64661773"
     inkscape:cx="153.87762"
     inkscape:cy="98.203307"
     inkscape:window-width="1920"
     inkscape:window-height="1108"
     inkscape:window-x="0"
     inkscape:window-y="53"
     inkscape:window-maximized="1"
     inkscape:current-layer="svg6" />
  <g
     transform="matrix(0.14156741,0,0,-0.13229178,-45.543009,214.25258)"
     fill="#000000"
     stroke="none"
     id="g6"
     inkscape:label="text"
     style="fill:#ffffff;fill-opacity:1">
    <path
       d="M 1930,870 V 520 h 303 c 325,0 333,1 371,53 20,27 21,43 24,275 4,273 -1,306 -49,346 l -31,26 h -309 -309 z m 610,251 c 14,-26 14,-476 0,-502 -10,-18 -24,-19 -255,-19 -134,0 -250,3 -259,6 -14,5 -16,38 -16,263 0,142 3,261 7,264 3,4 120,7 259,7 240,0 254,-1 264,-19 z"
       id="path1"
       style="fill:#ffffff;fill-opacity:1" />
    <path
       d="m 2793,1200 c -17,-10 -37,-28 -42,-39 -7,-13 -11,-130 -11,-330 V 520 h 40 40 v 125 125 h 270 270 V 645 520 h 40 40 v 295 c 0,321 -3,342 -55,383 -27,21 -36,22 -294,22 -246,0 -268,-2 -298,-20 z m 557,-79 c 5,-11 10,-74 10,-140 V 860 h -270 -270 v 133 c 0,74 3,137 7,140 3,4 120,7 259,7 240,0 254,-1 264,-19 z"
       id="path2"
       style="fill:#ffffff;fill-opacity:1" />
    <path
       d="m 3510,1180 v -40 h 155 155 V 830 520 h 40 40 v 310 310 h 155 155 v 40 40 h -350 -350 z"
       id="path3"
       style="fill:#ffffff;fill-opacity:1" />
    <path
       d="m 4289,1208 c -1,-18 -1,-660 0,-676 1,-9 13,-12 39,-10 l 37,3 v 348 l 1,347 h -38 c -23,0 -38,-5 -39,-12 z"
       id="path4"
       style="fill:#ffffff;fill-opacity:1" />
    <path
       d="m 4541,1194 c -41,-34 -54,-83 -50,-192 3,-73 8,-96 25,-119 38,-51 50,-53 316,-53 135,0 253,-3 262,-6 13,-5 16,-25 16,-110 0,-99 -1,-104 -22,-109 -13,-3 -131,-4 -263,-3 l -240,3 -10,33 c -9,30 -12,33 -45,30 -33,-3 -35,-5 -33,-37 1,-39 29,-80 64,-98 17,-9 97,-13 282,-13 349,0 347,-1 347,195 0,196 2,195 -344,195 -242,0 -256,1 -266,19 -14,28 -13,173 3,194 11,16 36,17 267,15 l 255,-3 5,-30 c 4,-26 10,-30 43,-33 37,-3 37,-3 37,35 0,21 -7,49 -16,61 -34,49 -54,52 -338,52 h -264 z"
       id="path5"
       style="fill:#ffffff;fill-opacity:1" />
    <path
       d="m 5260,1180 v -40 h 155 155 V 830 520 h 40 40 v 310 310 h 155 155 v 40 40 h -350 -350 z"
       id="path6"
       style="fill:#ffffff;fill-opacity:1" />
  </g>
  <path
     fill="#6fa7db"
     opacity="1"
     stroke="none"
     d="m 173.47698,151.64226 c 11.59779,-5.53706 22.86826,-10.65268 33.97225,-16.12691 4.63502,-2.28504 7.98854,-0.36664 9.85643,3.3056 2.02954,3.99004 0.26707,7.84631 -3.77634,9.855 -10.90565,5.41764 -21.89736,10.65096 -32.84435,15.98062 -22.11353,10.76621 -44.35021,21.27789 -66.24549,32.49701 -6.10262,3.12702 -10.30657,-0.29661 -14.698639,-2.3888 -21.295894,-10.14454 -42.34641,-20.8348 -63.531647,-31.22821 -9.479545,-4.65065 -19.04834,-9.11082 -28.6209828,-13.55601 -5.1751205,-2.40316 -7.80025732,-7.03458 -5.7503073,-11.32337 2.4225663,-5.06837 6.4813107,-4.83096 10.8143961,-2.79843 9.184444,4.30809 18.440919,8.46118 27.539757,12.95345 22.078049,10.90026 44.053901,22.02105 66.171303,32.83489 1.79648,0.87837 4.70161,0.8409 6.51418,-0.0371 20.13403,-9.75289 40.15412,-19.75573 60.59944,-29.96777 z"
     id="path3-9"
     style="fill:#74c0fc;fill-opacity:1;stroke-width:1.26365"
     inkscape:label="bottom" />
  <path
     fill="#6fa7db"
     opacity="1"
     stroke="none"
     d="m 173.82438,109.6223 c 11.59777,-5.53706 22.86825,-10.652677 33.97223,-16.126898 4.63504,-2.285045 7.98857,-0.366644 9.85644,3.305592 2.02954,3.990056 0.26708,7.846316 -3.77632,9.854986 -10.90567,5.41766 -21.89736,10.65098 -32.84435,15.98063 -22.11353,10.7662 -44.35023,21.27789 -66.24551,32.49701 -6.10261,3.12702 -10.30654,-0.29661 -14.69863,-2.38883 C 78.792341,142.60027 57.741827,131.91002 36.55659,121.51662 27.077045,116.86596 17.508249,112.40577 7.9356062,107.96061 2.7605004,105.55744 0.13536348,100.92605 2.1852989,96.637249 4.6078653,91.568877 8.6666097,91.80629 12.99971,93.838803 c 9.184427,4.308095 18.440904,8.461187 27.539741,12.953457 22.078051,10.90026 44.053896,22.02103 66.171299,32.83486 1.7965,0.87838 4.70163,0.84092 6.5142,-0.037 20.13401,-9.75288 40.1541,-19.75572 60.59943,-29.96776 z"
     id="path3-2"
     style="fill:#74c0fc;fill-opacity:1;stroke-width:1.26365"
     inkscape:label="middle" />
  <path
     fill="#6fa7db"
     opacity="1"
     stroke="none"
     d="m 113.23733,2.4682206 c 15.65418,7.5075906 30.79208,14.9886904 45.99126,22.3351584 17.7494,8.579122 35.62664,16.883684 53.24503,25.737265 2.40436,1.208236 5.04592,4.924323 5.00862,7.438779 -0.0373,2.519616 -2.78125,6.002285 -5.22269,7.309758 -12.74793,6.826927 -25.75305,13.147771 -38.71516,19.544551 -14.22562,7.020303 -28.49083,13.955696 -42.76116,20.879058 -6.0347,2.92779 -12.03995,5.95888 -18.2433,8.45562 -1.9466,0.78346 -4.82106,0.69692 -6.71843,-0.21384 C 87.84659,105.32671 70.000662,96.41387 52.098016,87.625477 36.941669,80.185252 21.679834,72.964951 6.6712422,65.222032 4.3195283,64.008795 1.646384,60.507277 1.6889244,58.112278 1.7349931,55.516372 4.2250733,51.768881 6.6093267,50.595358 39.628051,34.343702 72.792943,18.406157 106.00585,2.578494 c 1.87575,-0.8938907 4.47811,-0.1682086 7.23148,-0.1102165 m 37.00089,34.5748245 c -12.73532,-6.392293 -25.42541,-12.88461 -38.26391,-19.048631 -1.58239,-0.759738 -4.20673,-0.323004 -5.92464,0.499289 -15.216013,7.283255 -30.345862,14.758335 -45.481945,22.218195 -11.684319,5.75866 -23.340998,11.57686 -35.672276,17.697305 5.207587,2.409591 9.661793,4.347651 14.013729,6.50487 22.604674,11.204979 45.168441,22.497887 67.807802,33.627569 1.35881,0.668004 3.52734,0.796254 4.85076,0.152687 27.41516,-13.331677 54.76244,-26.81174 82.54899,-40.471805 -14.53521,-7.115366 -28.73435,-14.066227 -43.87851,-21.179479 z"
     id="path2-1"
     style="fill:#74c0fc;fill-opacity:1;stroke-width:1.26365"
     inkscape:label="top" />
</svg>
